<svg xmlns="http://www.w3.org/2000/svg" width="192" height="44" viewBox="0 0 192 44" fill="none"><rect x="158.369" y="27.4685" width="33.6307" height="13.4069" rx="4.14185" fill="#F5FFC4"></rect><path d="M167.143 36.3438V31.7049H169.045C169.368 31.7049 169.639 31.7557 169.86 31.8573C170.081 31.9589 170.247 32.1003 170.357 32.2814C170.472 32.4581 170.53 32.6636 170.53 32.8977C170.53 33.1319 170.479 33.3285 170.377 33.4875C170.28 33.6466 170.147 33.7703 169.98 33.8586C169.812 33.9426 169.631 33.9912 169.436 34.0044L169.536 33.9315C169.748 33.9404 169.935 33.9978 170.099 34.1038C170.267 34.2054 170.397 34.3424 170.49 34.5147C170.587 34.687 170.636 34.8748 170.636 35.078C170.636 35.3254 170.576 35.5441 170.457 35.7341C170.342 35.924 170.17 36.0743 169.94 36.1847C169.714 36.2907 169.438 36.3438 169.111 36.3438H167.143ZM168.038 35.6148H168.972C169.211 35.6148 169.396 35.5596 169.529 35.4491C169.661 35.3387 169.728 35.1796 169.728 34.972C169.728 34.7643 169.659 34.6031 169.522 34.4882C169.385 34.3689 169.198 34.3093 168.959 34.3093H168.038V35.6148ZM168.038 33.6399H168.899C169.134 33.6399 169.312 33.5869 169.436 33.4809C169.56 33.3749 169.622 33.2247 169.622 33.0303C169.622 32.8403 169.56 32.6923 169.436 32.5863C169.312 32.4758 169.131 32.4206 168.893 32.4206H168.038V33.6399ZM171.415 36.3438V31.7049H174.47V32.4272H172.309V33.6399H174.271V34.3358H172.309V35.6214H174.47V36.3438H171.415ZM176.39 36.3438V32.4272H175.038V31.7049H178.637V32.4272H177.285V36.3438H176.39ZM178.506 36.3438L180.196 31.7049H181.21L182.9 36.3438H181.952L180.7 32.7254L179.441 36.3438H178.506ZM179.249 35.2901L179.487 34.5942H181.846L182.078 35.2901H179.249Z" fill="#0F1408"></path><rect width="42.8803" height="43.2648" rx="3.58938" fill="#D2F525"></rect><path d="M22.824 22.4925C22.1916 23.1123 20.9425 23.6192 20.0482 23.6192H11.0043C10.11 23.6192 9.89558 23.1123 10.528 22.4925L20.426 12.7909C21.0584 12.1711 22.3075 11.6638 23.2018 11.6638H32.2457C33.14 11.6638 33.3544 12.1711 32.722 12.7909L22.824 22.4925Z" fill="#282828"></path><path d="M22.8103 31.0417C22.1779 31.6615 20.9288 32.1688 20.0345 32.1688H10.9906C10.0963 32.1688 9.88191 31.6615 10.5143 31.0417L20.412 21.3401C21.0444 20.7203 22.2935 20.2134 23.1878 20.2134H32.2317C33.126 20.2134 33.3404 20.7203 32.708 21.3401L22.8103 31.0417Z" fill="#282828"></path><path d="M62.7348 20.2563C61.6668 20.2563 60.6985 20.0783 59.8299 19.7223C58.9755 19.3521 58.2992 18.811 57.8008 18.099C57.3024 17.387 57.0318 16.5113 56.9891 15.4718H60.4066C60.4209 15.8848 60.5277 16.2479 60.727 16.5611C60.9264 16.8744 61.1969 17.1236 61.5387 17.3087C61.8804 17.4796 62.2791 17.565 62.7348 17.565C63.1193 17.565 63.4539 17.5081 63.7387 17.3942C64.0377 17.266 64.2727 17.088 64.4435 16.8602C64.6144 16.6181 64.6999 16.3191 64.6999 15.9631C64.6999 15.5929 64.6002 15.2796 64.4008 15.0233C64.2015 14.7527 63.9309 14.5249 63.5892 14.3398C63.2474 14.1404 62.8487 13.9624 62.393 13.8058C61.9516 13.6349 61.4746 13.4712 60.962 13.3145C59.7801 12.9301 58.8688 12.4103 58.228 11.7553C57.6014 11.1003 57.2882 10.2245 57.2882 9.12809C57.2882 8.21676 57.5089 7.4407 57.9503 6.79992C58.406 6.1449 59.0254 5.64651 59.8086 5.30476C60.5917 4.96301 61.4817 4.79214 62.4785 4.79214C63.5037 4.79214 64.4079 4.97013 65.1911 5.32612C65.9743 5.66787 66.5937 6.17338 67.0494 6.84264C67.5051 7.49766 67.7471 8.28083 67.7756 9.19217H64.3367C64.3225 8.8789 64.23 8.5941 64.0591 8.33779C63.9024 8.08148 63.6817 7.87501 63.3969 7.71837C63.1264 7.56173 62.806 7.48342 62.4358 7.48342C62.1083 7.46918 61.8092 7.51902 61.5387 7.63293C61.2824 7.73261 61.0688 7.89636 60.8979 8.1242C60.7413 8.33779 60.6629 8.60834 60.6629 8.93585C60.6629 9.24912 60.7413 9.5268 60.8979 9.76887C61.0688 9.9967 61.2966 10.1961 61.5814 10.3669C61.8804 10.5236 62.2222 10.6731 62.6066 10.8155C63.0053 10.9579 63.4397 11.1003 63.9096 11.2427C64.6643 11.499 65.3549 11.8051 65.9814 12.1611C66.6222 12.5029 67.1348 12.9585 67.5193 13.5281C67.918 14.0835 68.1174 14.8239 68.1174 15.7495C68.1174 16.5611 67.9038 17.3087 67.4766 17.9922C67.0636 18.6757 66.4584 19.2239 65.661 19.6369C64.8779 20.0498 63.9024 20.2563 62.7348 20.2563ZM74.0195 20.2563C73.1225 20.2563 72.3606 20.0712 71.7341 19.701C71.1218 19.3307 70.6519 18.7896 70.3244 18.0777C70.0111 17.3514 69.8545 16.4686 69.8545 15.4291V9.23488H73.0584V15.1087C73.0584 15.9061 73.2221 16.5184 73.5496 16.9456C73.8771 17.3586 74.404 17.565 75.1302 17.565C75.5717 17.565 75.9632 17.4654 76.305 17.266C76.661 17.0666 76.9315 16.7747 77.1166 16.3903C77.316 16.0058 77.4157 15.5359 77.4157 14.9806V9.23488H80.6196V20H77.8215L77.5652 18.2913C77.2519 18.8751 76.7963 19.3521 76.1982 19.7223C75.6001 20.0783 74.8739 20.2563 74.0195 20.2563ZM82.8603 24.6991V9.23488H85.7011L86.0642 10.6446C86.2921 10.3456 86.5555 10.0679 86.8545 9.81159C87.1535 9.55527 87.5095 9.35592 87.9225 9.21353C88.3497 9.05689 88.8481 8.97857 89.4176 8.97857C90.4144 8.97857 91.2901 9.22776 92.0448 9.72615C92.8138 10.2245 93.4261 10.9009 93.8817 11.7553C94.3374 12.5954 94.5652 13.5566 94.5652 14.6388C94.5652 15.721 94.3303 16.6893 93.8604 17.5437C93.4047 18.3838 92.7924 19.0459 92.0235 19.5301C91.2545 20.0142 90.393 20.2563 89.439 20.2563C88.6701 20.2563 88.0079 20.121 87.4526 19.8505C86.8972 19.5799 86.4344 19.2026 86.0642 18.7184V24.6991H82.8603ZM88.6273 17.4582C89.14 17.4582 89.5956 17.3443 89.9943 17.1165C90.4073 16.8744 90.7277 16.5398 90.9555 16.1126C91.1833 15.6854 91.2973 15.1941 91.2973 14.6388C91.2973 14.0835 91.1833 13.5922 90.9555 13.165C90.7277 12.7378 90.4073 12.4032 89.9943 12.1611C89.5956 11.9048 89.14 11.7766 88.6273 11.7766C88.1005 11.7766 87.6306 11.9048 87.2176 12.1611C86.8189 12.4032 86.5056 12.7378 86.2778 13.165C86.05 13.5922 85.9361 14.0763 85.9361 14.6174C85.9361 15.1728 86.05 15.6641 86.2778 16.0912C86.5056 16.5184 86.8189 16.8531 87.2176 17.0951C87.6306 17.3372 88.1005 17.4582 88.6273 17.4582ZM101.787 20.2563C100.676 20.2563 99.7004 20.0285 98.8603 19.5728C98.0202 19.1029 97.358 18.455 96.8739 17.6291C96.404 16.789 96.169 15.8278 96.169 14.7456C96.169 13.6349 96.404 12.6453 96.8739 11.7766C97.3438 10.908 97.9988 10.2245 98.8389 9.72615C99.6791 9.22776 100.654 8.97857 101.765 8.97857C102.847 8.97857 103.794 9.21352 104.606 9.68343C105.418 10.1533 106.051 10.7941 106.507 11.6058C106.977 12.4032 107.212 13.3288 107.212 14.3825C107.212 14.5249 107.205 14.6886 107.19 14.8738C107.19 15.0446 107.176 15.2226 107.148 15.4077H98.4545V13.5495H103.944C103.915 12.9514 103.695 12.4744 103.282 12.1184C102.883 11.7482 102.385 11.5631 101.787 11.5631C101.331 11.5631 100.918 11.6699 100.548 11.8834C100.177 12.097 99.8784 12.4174 99.6506 12.8446C99.437 13.2718 99.3302 13.8129 99.3302 14.4679V15.1087C99.3302 15.6071 99.4228 16.0485 99.6079 16.433C99.8072 16.8175 100.085 17.1165 100.441 17.3301C100.811 17.5437 101.245 17.6505 101.744 17.6505C102.214 17.6505 102.598 17.5579 102.897 17.3728C103.21 17.1734 103.453 16.9243 103.623 16.6252H106.891C106.692 17.3087 106.35 17.9281 105.866 18.4835C105.382 19.0246 104.791 19.4589 104.093 19.7864C103.396 20.0997 102.627 20.2563 101.787 20.2563ZM109.034 20V9.23488H111.875L112.174 11.1999C112.458 10.7443 112.793 10.3527 113.178 10.0252C113.562 9.69767 114.003 9.44136 114.502 9.25624C115.014 9.07113 115.563 8.97857 116.147 8.97857V12.3747H115.079C114.651 12.3747 114.26 12.4245 113.904 12.5242C113.562 12.6097 113.263 12.7592 113.007 12.9728C112.765 13.1864 112.572 13.4783 112.43 13.8485C112.302 14.2045 112.238 14.653 112.238 15.1941V20H109.034ZM57.4804 39V24.0484H67.4979V26.6329H60.6843V30.1572H66.8572V32.6349H60.6843V36.4155H67.4979V39H57.4804ZM69.4607 39V23.6213H72.6646V39H69.4607ZM80.2103 39.2563C79.0996 39.2563 78.1242 39.0285 77.284 38.5728C76.4439 38.1029 75.7817 37.455 75.2976 36.6291C74.8277 35.789 74.5927 34.8278 74.5927 33.7456C74.5927 32.6349 74.8277 31.6453 75.2976 30.7766C75.7675 29.908 76.4225 29.2245 77.2627 28.7261C78.1028 28.2278 79.0782 27.9786 80.1889 27.9786C81.2711 27.9786 82.218 28.2135 83.0297 28.6834C83.8413 29.1533 84.475 29.7941 84.9307 30.6058C85.4006 31.4032 85.6355 32.3288 85.6355 33.3825C85.6355 33.5249 85.6284 33.6886 85.6142 33.8738C85.6142 34.0446 85.5999 34.2226 85.5714 34.4077H76.8782V32.5495H82.3675C82.3391 31.9514 82.1184 31.4744 81.7054 31.1184C81.3067 30.7482 80.8083 30.5631 80.2103 30.5631C79.7546 30.5631 79.3416 30.6699 78.9714 30.8834C78.6012 31.097 78.3021 31.4174 78.0743 31.8446C77.8607 32.2718 77.7539 32.8129 77.7539 33.4679V34.1087C77.7539 34.6071 77.8465 35.0485 78.0316 35.433C78.231 35.8175 78.5086 36.1165 78.8646 36.3301C79.2348 36.5437 79.6691 36.6505 80.1675 36.6505C80.6374 36.6505 81.0219 36.5579 81.3209 36.3728C81.6342 36.1734 81.8763 35.9243 82.0472 35.6252H85.3151C85.1158 36.3087 84.774 36.9281 84.2899 37.4835C83.8057 38.0246 83.2148 38.4589 82.5171 38.7864C81.8193 39.0997 81.0504 39.2563 80.2103 39.2563ZM87.4576 39V28.2349H90.2557L90.5333 29.6232C90.8751 29.1249 91.3236 28.7261 91.879 28.4271C92.4486 28.1281 93.1036 27.9786 93.844 27.9786C94.3709 27.9786 94.8479 28.0498 95.2751 28.1922C95.7023 28.3203 96.0796 28.5197 96.4072 28.7902C96.7347 29.0465 97.0052 29.3741 97.2188 29.7728C97.6318 29.2174 98.1586 28.7831 98.7994 28.4698C99.4402 28.1423 100.138 27.9786 100.893 27.9786C101.861 27.9786 102.658 28.1708 103.285 28.5553C103.926 28.9397 104.403 29.4951 104.716 30.2213C105.029 30.9475 105.186 31.8304 105.186 32.8699V39H102.003V33.1475C102.003 32.3644 101.847 31.7592 101.533 31.332C101.234 30.8906 100.75 30.6699 100.081 30.6699C99.6538 30.6699 99.2764 30.7766 98.9489 30.9902C98.6214 31.2038 98.3651 31.5029 98.18 31.8873C98.0091 32.2718 97.9237 32.7346 97.9237 33.2757V39H94.7411V33.1475C94.7411 32.3644 94.5845 31.7592 94.2712 31.332C93.9579 30.8906 93.4524 30.6699 92.7547 30.6699C92.356 30.6699 91.9929 30.7766 91.6654 30.9902C91.3521 31.2038 91.1029 31.5029 90.9178 31.8873C90.7469 32.2718 90.6615 32.7346 90.6615 33.2757V39H87.4576ZM112.621 39.2563C111.51 39.2563 110.534 39.0285 109.694 38.5728C108.854 38.1029 108.192 37.455 107.708 36.6291C107.238 35.789 107.003 34.8278 107.003 33.7456C107.003 32.6349 107.238 31.6453 107.708 30.7766C108.178 29.908 108.833 29.2245 109.673 28.7261C110.513 28.2278 111.489 27.9786 112.599 27.9786C113.681 27.9786 114.628 28.2135 115.44 28.6834C116.252 29.1533 116.885 29.7941 117.341 30.6058C117.811 31.4032 118.046 32.3288 118.046 33.3825C118.046 33.5249 118.039 33.6886 118.024 33.8738C118.024 34.0446 118.01 34.2226 117.982 34.4077H109.289V32.5495H114.778C114.749 31.9514 114.529 31.4744 114.116 31.1184C113.717 30.7482 113.219 30.5631 112.621 30.5631C112.165 30.5631 111.752 30.6699 111.382 30.8834C111.012 31.097 110.712 31.4174 110.485 31.8446C110.271 32.2718 110.164 32.8129 110.164 33.4679V34.1087C110.164 34.6071 110.257 35.0485 110.442 35.433C110.641 35.8175 110.919 36.1165 111.275 36.3301C111.645 36.5437 112.079 36.6505 112.578 36.6505C113.048 36.6505 113.432 36.5579 113.731 36.3728C114.045 36.1734 114.287 35.9243 114.457 35.6252H117.725C117.526 36.3087 117.184 36.9281 116.7 37.4835C116.216 38.0246 115.625 38.4589 114.927 38.7864C114.23 39.0997 113.461 39.2563 112.621 39.2563ZM119.868 39V28.2349H122.666L122.922 29.965C123.25 29.3669 123.713 28.8899 124.311 28.5339C124.909 28.1637 125.635 27.9786 126.489 27.9786C127.386 27.9786 128.141 28.1708 128.753 28.5553C129.366 28.9397 129.828 29.4951 130.142 30.2213C130.469 30.9333 130.633 31.809 130.633 32.8485V39H127.45V33.1475C127.45 32.3644 127.28 31.7592 126.938 31.332C126.61 30.8906 126.083 30.6699 125.357 30.6699C124.93 30.6699 124.538 30.7766 124.182 30.9902C123.841 31.1896 123.57 31.4815 123.371 31.866C123.171 32.2504 123.072 32.7132 123.072 33.2543V39H119.868ZM137.808 39C137.025 39 136.334 38.879 135.736 38.6369C135.138 38.3806 134.675 37.9676 134.348 37.398C134.02 36.8285 133.856 36.0524 133.856 35.0699V30.9048H132.019V28.2349H133.856L134.198 25.2019H137.06V28.2349H139.816V30.9048H137.06V35.1126C137.06 35.5398 137.153 35.8459 137.338 36.031C137.537 36.2019 137.872 36.2874 138.342 36.2874H139.816V39H137.808ZM146.23 39.2563C145.219 39.2563 144.343 39.0997 143.603 38.7864C142.877 38.4589 142.3 38.0175 141.873 37.4621C141.46 36.9068 141.225 36.2802 141.168 35.5825H144.35C144.407 35.8246 144.507 36.0453 144.649 36.2446C144.806 36.4298 145.013 36.5793 145.269 36.6932C145.539 36.7929 145.838 36.8427 146.166 36.8427C146.522 36.8427 146.807 36.8 147.02 36.7145C147.248 36.6149 147.419 36.4867 147.533 36.3301C147.647 36.1734 147.704 36.0097 147.704 35.8388C147.704 35.5683 147.618 35.3618 147.448 35.2194C147.291 35.077 147.056 34.9631 146.743 34.8776C146.429 34.778 146.052 34.6854 145.611 34.6C145.098 34.4861 144.585 34.3579 144.073 34.2155C143.574 34.0589 143.126 33.8666 142.727 33.6388C142.343 33.411 142.029 33.1191 141.787 32.7631C141.559 32.3928 141.446 31.9443 141.446 31.4174C141.446 30.7766 141.624 30.1999 141.98 29.6873C142.335 29.1605 142.848 28.7475 143.517 28.4485C144.187 28.1352 144.998 27.9786 145.952 27.9786C147.305 27.9786 148.366 28.2776 149.135 28.8757C149.904 29.4737 150.359 30.2783 150.502 31.2893H147.512C147.426 31.0045 147.248 30.7909 146.978 30.6485C146.707 30.4919 146.365 30.4135 145.952 30.4135C145.482 30.4135 145.126 30.4919 144.884 30.6485C144.642 30.8051 144.521 31.0116 144.521 31.2679C144.521 31.4388 144.6 31.5954 144.756 31.7378C144.927 31.866 145.169 31.9799 145.482 32.0796C145.796 32.1792 146.18 32.2789 146.636 32.3786C147.504 32.5637 148.252 32.7631 148.879 32.9767C149.519 33.1903 150.018 33.5035 150.374 33.9165C150.73 34.3152 150.901 34.899 150.886 35.6679C150.901 36.3657 150.715 36.9851 150.331 37.5262C149.961 38.0673 149.427 38.4945 148.729 38.8078C148.031 39.1068 147.198 39.2563 146.23 39.2563Z" fill="#282828"></path></svg>